<?xml version="1.0" encoding="UTF-8" standalone="no"?>
<svg
   xmlns:dc="http://purl.org/dc/elements/1.1/"
   xmlns:cc="http://creativecommons.org/ns#"
   xmlns:rdf="http://www.w3.org/1999/02/22-rdf-syntax-ns#"
   xmlns:svg="http://www.w3.org/2000/svg"
   xmlns="http://www.w3.org/2000/svg"
   viewBox="0 0 473.12 105.06667"
   height="105.06667"
   width="473.12"
   xml:space="preserve"
   id="svg2"
   version="1.1"><metadata
     id="metadata8"><rdf:RDF><cc:Work
         rdf:about=""><dc:format>image/svg+xml</dc:format><dc:type
           rdf:resource="http://purl.org/dc/dcmitype/StillImage" /></cc:Work></rdf:RDF></metadata><defs
     id="defs6"><clipPath
       id="clipPath20"
       clipPathUnits="userSpaceOnUse"><path
         id="path18"
         d="M 0,0 H 3548 V 787.973 H 0 Z" /></clipPath></defs><g
     transform="matrix(1.3333333,0,0,-1.3333333,0,105.06667)"
     id="g10"><g
       transform="scale(0.1)"
       id="g12"><g
         id="g14"><g
           clip-path="url(#clipPath20)"
           id="g16"><path
             id="path22"
             style="fill:#231f20;fill-opacity:1;fill-rule:nonzero;stroke:none"
             d="m 1327.46,382.363 c 0,1.211 -0.25,3.11 1.44,3.11 l 1.75,0.172 c 4.3,0 6.84,-2.188 6.84,-6.719 0,-5.625 -3.65,-6.981 -8.43,-6.981 l -1.6,0.106 z m -5.79,-23.015 c 0,-2.188 -0.6,-2.09 -2.53,-2.274 h -1.18 v -1.672 h 13.11 v 1.672 l -1.42,0.086 c -1.93,0 -2.1,0.766 -2.19,2.524 v 10.25 h 1.26 c 1.44,0 2.86,0.179 4.03,-1.188 1.6,-1.758 4.12,-9.82 5.97,-12.008 0.85,-1 1.44,-1 2.61,-1.336 h 5.72 v 1.672 c -1.42,0 -2.01,0.336 -2.7,1.278 -0.93,1.332 -2.02,3.769 -2.67,5.199 -1.37,2.945 -3.05,6.832 -6.48,7.476 4.37,0.758 8.16,3.703 8.16,8.664 0,2.36 -1.44,5.133 -3.45,6.407 -2.53,1.492 -6.22,1.406 -9.09,1.406 h -12.76 v -1.766 h 1.25 c 2.11,-0.093 2.36,-0.336 2.36,-2.437 z m 9.84,-18.653 c 16.12,0 29.23,13.364 29.23,29.84 0,16.633 -13.11,29.985 -29.23,29.985 -16.07,0 -29.09,-13.418 -29.09,-29.985 0,-16.476 13.02,-29.84 29.09,-29.84 z m 0,4.77 c -13.45,0 -24.47,11.273 -24.47,25.14 0,13.946 10.92,25.219 24.47,25.219 13.59,0 24.61,-11.179 24.61,-25.219 0,-13.867 -11.08,-25.14 -24.61,-25.14 v 0" /><path
             id="path24"
             style="fill:#231f20;fill-opacity:1;fill-rule:nonzero;stroke:none"
             d="m 1459.7,448.645 15.52,-53.758 9.74,-38.352 h 22.13 l 31.41,109.188 73.95,242.632 c 7.98,25.938 8.89,47.774 37.17,45.438 v 17.762 c -15.98,-1.785 -31.4,-2.981 -47.84,-2.981 -16.36,0 -31.8,1.196 -47.77,2.981 v -17.762 c 53.16,2.336 39.37,-23.605 30.54,-56.688 l -19,-71.406 -58.08,-192.414 -69.06,233.125 -16.82,65.586 c -3.05,11.746 -5.7,23 36.78,21.797 v 17.762 c -19.49,-1.785 -38.97,-2.981 -58.92,-2.981 -19.88,0 -39.36,1.196 -58.85,2.981 v -17.762 l 8.38,-0.598 c 24.37,-4.722 20.85,-7.05 30.59,-38.98 l 80.13,-265.57" /><path
             id="path26"
             style="fill:#231f20;fill-opacity:1;fill-rule:nonzero;stroke:none"
             d="m 1739.87,553.652 c 100.07,4.743 103.1,8.332 103.1,-58.437 h 14.68 v 136.328 h -14.68 c -0.4,-57.797 -6.54,-50.742 -103.1,-49.539 v 110.422 c 0,20.664 0.46,34.246 2.24,48.945 14.57,2.969 35.38,2.969 54.87,2.969 22.13,0 44.74,-1.18 65.97,-10.047 3.09,-18.281 5.74,-34.836 6.21,-57.852 h 13.72 c 0,12.418 1.31,22.438 1.31,34.84 0.46,18.907 2.25,37.817 7.11,57.293 -15.06,2.981 -45.58,2.305 -73.52,2.981 -26.57,-1.785 -53.61,-2.981 -81.05,-2.981 -27.44,0 -53.99,1.196 -80.96,2.981 v -17.762 c 42.5,-2.977 42.04,-7.039 42.04,-53.125 V 429.691 c 0,-39.531 -15.96,-51.921 -38.07,-53.086 v -17.679 c 27.03,1.695 53.14,2.906 80.13,2.906 27,0 53.61,-1.211 79.69,-2.906 27.44,0.578 57.1,0 73.53,2.906 v 48.953 c 0,18.906 2.63,35.469 4.36,47.836 h -14.57 l -3.96,-32.453 c -0.88,-10.672 -3.12,-21.234 -5.31,-30.141 -23.07,-8.797 -47.39,-9.953 -71.31,-9.953 -21.21,0 -43.83,0 -60.19,2.836 -1.78,15.422 -2.24,29.602 -2.24,50.875 v 113.867" /><path
             id="path28"
             style="fill:#231f20;fill-opacity:1;fill-rule:nonzero;stroke:none"
             d="m 1955.78,429.691 c 0,-46.031 0.46,-50.14 -41.99,-53.086 v -17.679 c 19.86,1.695 40.69,2.906 62.41,2.906 21.69,0 42.48,-1.211 63.78,-2.906 v 17.679 c -42.52,2.946 -42.09,7.055 -42.09,53.086 v 270.977 c 0,18.289 0,30.656 2.64,40.703 11.99,4.774 28.78,7.727 44.29,7.727 32.7,0 68.17,-18.91 68.17,-82.688 0,-43.695 -26.57,-75.558 -57.58,-82.629 -13.26,-2.98 -26.98,-3.515 -40.7,-2.304 l -1.8,-8.903 105.39,-180.609 c 6.22,-10.047 11.09,-20.735 18.16,-33.039 10.21,1.695 19.88,2.906 30.09,2.906 10.23,0 20.42,-1.211 30.09,-2.906 v 17.679 c -8.82,1.79 -18.1,5.313 -25.18,16.563 l -100.54,174.664 c 42.95,11.25 86.36,49.602 86.36,113.938 0,49.554 -28.38,93.847 -89.49,89.785 -25.64,-1.785 -51.35,-2.981 -77.46,-2.981 -26.06,0 -51.79,1.196 -76.54,2.981 v -17.762 c 42.45,-2.977 41.99,-7.039 41.99,-53.125 V 429.691" /><path
             id="path30"
             style="fill:#231f20;fill-opacity:1;fill-rule:nonzero;stroke:none"
             d="M 2509.65,700.668 V 429.691 c 0,-46.031 0.45,-50.14 -42.07,-53.086 v -17.679 c 19.94,1.695 40.69,2.906 62.44,2.906 21.67,0 42.49,-1.211 63.75,-2.906 v 17.679 c -42.51,2.946 -42.08,7.055 -42.08,53.086 v 283.946 c 0,34.25 7.95,39.558 34.51,40.156 h 6.66 v 17.762 c -13.72,-1.785 -27.84,-2.981 -42.06,-2.981 -14.18,0 -28.36,1.196 -42.07,2.981 -5.76,-26.012 -14.18,-51.395 -23.84,-78.551 L 2393.61,442.73 2276.77,771.555 c -13.7,-1.785 -27.96,-2.981 -42.09,-2.981 -14.18,0 -28.29,1.196 -42.07,2.981 v -17.762 l 7.1,-0.598 c 27.03,0 34.97,-5.308 34.97,-39.558 V 416.699 c 0,-34.219 -7.94,-39.508 -34.97,-39.508 l -7.1,-0.586 v -17.679 c 17.75,1.695 35.46,2.906 53.14,2.906 17.69,0 35.47,-1.211 52.7,-2.906 v 17.679 l -7.11,0.586 c -27.9,0 -36.29,5.289 -36.29,39.508 v 283.969 l 123.53,-346.535 h 8.86 l 122.21,346.535" /><path
             id="path32"
             style="fill:#231f20;fill-opacity:1;fill-rule:nonzero;stroke:none"
             d="m 2771.6,375.402 c -87.67,0 -124,108.028 -124,211.313 0,96.836 35,168.281 112.07,168.281 82.32,0 121.68,-77.953 121.68,-194.808 0,-108.633 -35.78,-178.27 -109.75,-184.786 z m -4.9,404.942 c -102.65,1.801 -166.49,-92.656 -166.49,-213.047 0,-134.637 67.33,-217.277 157.21,-217.277 96.96,0 171.32,101.535 171.32,228.437 0,131.039 -67.26,201.887 -162.04,201.887" /><path
             id="path34"
             style="fill:#231f20;fill-opacity:1;fill-rule:nonzero;stroke:none"
             d="m 3011.47,771.555 c -12.85,-1.785 -25.27,-2.981 -38.1,-2.981 -13.27,0 -25.66,1.196 -38.51,2.981 v -17.762 h 6.19 c 24.83,-0.598 31.9,-5.906 31.9,-40.156 V 416.699 c 0,-34.219 -7.94,-39.508 -34.97,-39.508 l -7.11,-0.586 v -17.679 c 17.71,1.695 35.39,2.906 53.17,2.906 17.68,0 35.38,-1.211 52.64,-2.906 v 17.679 l -7.08,0.586 c -27.88,0 -36.29,5.289 -36.29,39.508 V 704.84 l 213.86,-346.586 34.96,-8.234 -1.33,21.875 v 341.742 c 0,34.25 8.44,39.558 36.29,39.558 l 7.11,0.598 v 17.762 c -17.25,-1.785 -34.96,-2.981 -52.71,-2.981 -17.66,0 -35.39,1.196 -53.09,2.981 v -17.762 l 7.06,-0.598 c 26.99,0 34.97,-5.308 34.97,-39.558 V 420.246 l -208.96,351.309" /><path
             id="path36"
             style="fill:#231f20;fill-opacity:1;fill-rule:nonzero;stroke:none"
             d="m 3399.2,429.691 c 0,-46.031 0.38,-50.14 -42.07,-53.086 v -17.679 c 19.87,1.695 40.65,2.906 62.39,2.906 21.7,0 42.49,-1.211 63.78,-2.906 v 17.679 c -42.5,2.946 -42.08,7.055 -42.08,53.086 v 252.727 c 0.46,22.422 0.46,41.25 1.76,58.953 l 69.1,-2.937 c 9.26,-0.586 14.62,-2.348 15.5,-17.688 1.7,-14.18 4.36,-29.523 4.81,-45.453 h 13.35 c 0,11.133 0,21.812 0.47,33.062 0.35,20.625 0.82,41.325 2.15,63.2 -42.95,-1.785 -85.02,-2.981 -127.97,-2.981 -43.39,0 -85.43,1.196 -127.5,2.981 1.35,-21.875 1.79,-42.575 2.25,-63.2 0.38,-11.25 0.38,-21.929 0.38,-33.062 h 13.33 c 0.39,15.93 3.08,31.273 4.87,45.453 0.91,15.34 6.24,17.102 15.46,17.688 l 68.22,2.937 c 1.34,-17.703 1.34,-36.531 1.8,-58.953 V 429.691" /><path
             id="path38"
             style="fill:#231f20;fill-opacity:1;fill-rule:evenodd;stroke:none"
             d="m 530.66,683.328 7.735,-1.207 4.093,-2.305 4.707,-0.601 8.266,-5.328 5.902,-2.946 4.133,-1.164 7.063,-6.492 5.324,-1.25 2.336,-4.062 4.172,-1.164 1.718,-4.188 7.11,-2.351 11.207,-2.922 10.047,-3.555 c 0.625,-1.457 1.371,-2.367 1.789,-4.164 l 8.836,0.648 4.121,-1.797 c 5.793,-3.546 6.828,-5.71 8.847,-6.484 l 5.325,-0.578 5.281,-1.188 7.711,-4.718 8.832,-2.969 4.719,-4.719 5.308,-1.765 4.731,-2.375 10.625,-2.93 7.09,-5.332 9.425,-2.957 7.09,-2.375 4.676,-4.707 6.527,-7.059 4.098,-1.211 4.18,-0.531 c 1.769,-1.141 3.289,-0.367 4.644,-1.25 l 4.192,-2.32 9.41,-4.75 4.14,-2.344 4.141,-3.555 7.687,-2.343 c 1.207,-1.188 3.352,-1.43 4.133,-2.344 l 6.449,-2.383 8.832,-2.367 c -0.054,2.047 -0.347,5.465 0.602,6.508 0.594,2.414 1.75,2.484 4.742,2.394 l 7.637,-3.574 4.133,-1.789 7.687,-3.539 c 4.407,-4.18 3.883,-5.707 6.532,-6.461 l 5.277,-1.18 h 5.926 l 4.105,2.949 4.77,1.161 7.019,2.929 12.969,3.594 c 1.25,0.363 5.156,1.691 7.109,1.133 l 5.285,-0.586 7.688,-2.328 c 5.848,5.816 13.895,8.484 14.723,8.226 0.992,-0.953 2.722,-1.539 4.152,-1.16 l 8.293,0.625 7.633,-4.152 c 2.679,-2.313 3.258,-2.254 4.758,-2.383 l 5.277,5.328 c 1.027,0.289 2.933,1.617 4.766,1.207 l 5.859,-0.625 4.754,-0.582 c 2.066,-0.625 2.715,-1.117 5.902,-1.187 -3.937,3.332 -4.07,2.394 -4.125,2.394 l -9.469,3.481 -9.453,1.226 -4.093,1.727 -5.93,0.625 5.93,3.539 6.484,-0.625 12.387,-2.328 5.882,-2.344 8.872,-1.211 7.636,-5.297 h 7.715 l 5.859,-2.367 4.141,-2.336 5.324,-1.781 5.313,-2.383 c 3.226,-2.875 5.078,-2.774 5.883,-6.469 l 8.254,-2.363 7.07,-2.969 4.13,-1.769 4.15,-1.766 4.11,-2.344 7.11,-5.937 6.49,-5.266 5.29,-1.785 8.28,-5.918 c 10.41,-2.402 13.72,-3.484 14.77,-7.676 1.86,-0.34 2.61,-0.918 4.66,-1.133 2.6,-2.488 2.72,-2.886 2.99,-4.207 2.6,-0.351 8.11,-0.468 10.05,-1.742 l 3.5,-4.062 4.7,-1.825 6.48,-2.925 4.17,-1.743 5.28,-2.988 4.75,-2.969 4.14,-2.968 6.47,-5.293 4.75,-2.364 4.1,-1.793 c 5.1,-4.101 7.8,-2.343 8.88,-6.468 7.17,-2.727 10.33,-5.875 14.76,-7.078 l 7.65,-5.899 6.49,-4.125 4.73,-2.945 7.09,-7.703 8.82,-5.313 6.48,-7.031 4.16,-1.762 7.05,-5.965 6.52,-5.285 3.52,-6.48 4.18,-1.203 4.08,-2.344 c 3.89,-4.734 2,-6.766 2.99,-8.219 2.53,-2.34 1.67,-0.289 4.12,-1.203 l 4.68,-1.762 4.17,-4.726 c 2.59,-4.403 3.86,-6.524 4.12,-10.051 l 8.24,-6.43 1.77,-4.218 4.14,-3.547 4.13,-4.153 c 4.05,-4.062 6.55,-7.082 7.06,-9.375 1.61,-1.925 2.57,-2.707 2.98,-4.687 -7.11,0.996 -7.3,0.887 -7.66,2.293 -4.32,1.875 -6.22,0.914 -7.68,1.769 l -4.74,2.942 -4.67,3.531 -1.83,4.195 -8.25,7.614 -5.31,7.097 -4.12,3.547 c -1.59,1.164 -3.44,1.563 -4.72,2.949 -4.75,5.313 -3.78,5.938 -4.13,7.051 -2.28,3.305 -3.66,4.473 -5.32,5.336 -6.09,3.953 -6.09,4.469 -6.51,4.734 -5.26,3.504 -5.28,5.133 -7.04,5.891 l -7.69,2.391 -3.56,4.687 c -5.55,5.313 -5.77,5.094 -5.94,5.133 l -1.13,3.773 c -2.28,0.028 -2.91,0.133 -4.14,1.094 l -5.86,1.203 c -5.05,3.578 -5.54,1.719 -7.07,2.418 l -4.15,1.762 -4.14,1.742 c -2.98,3.371 -2.47,3.93 -2.98,4.125 l -5.87,1.164 -6.48,1.742 -5.33,1.805 -7.07,4.133 c -2.12,2.656 -0.7,4.777 -5.3,5.336 -2.85,-1.719 -3.66,-1.367 -5.32,-0.559 l -11.25,8.215 h -4.1 c -1.11,1.024 -6.46,1.203 -8.87,1.16 l -5.28,-1.16 c -1.45,4.422 -0.07,6.695 -6.48,6.516 l -6.49,5.875 -4.14,2.367 c -2.27,2.656 -3.67,3.656 -5.86,4.75 l -5.33,0.562 -4.14,2.946 -7.11,1.203 -8.84,0.578 -11.18,6.48 c -3.97,1.317 -6.57,-1.05 -7.08,-1.207 h -5.33 c -1.33,-0.355 -4.78,-1.898 -7.11,-1.187 l -4.67,1.836 -11.832,0.558 h -8.254 l -4.695,0.575 -4.184,-1.782 1.211,-5.273 -4.726,-0.578 h -5.274 c -1.394,1.14 -2.266,1.047 -4.141,1.164 -0.679,-1.164 -2.007,-2.75 -2.367,-4.106 -2.332,-5.113 -3.828,-7.527 -8.258,-7.683 -4.085,-3.149 -6.039,-5.828 -7.695,-6.535 l -7.644,-4.688 c -6.121,-4.164 -5.836,-2.441 -5.903,-7.082 1.395,-1.43 1.774,-6.5 1.774,-9.441 -6.887,-1.34 -8.192,-2.215 -8.258,-2.371 -0.746,-4.907 -3.094,-4.727 -5.324,-4.688 -1.141,1.633 -3.547,2.102 -5.918,2.281 l -4.117,0.602 -7.086,1.805 -11.207,5.898 -4.735,0.625 -7.074,2.922 -7.688,3.57 -4.703,4.086 -4.152,4.735 c -2.5,1.875 -3.473,2.164 -4.074,2.945 -2.176,2.883 -2.617,4.039 -5.949,4.133 l -18.274,2.367 -4.105,1.758 -10.047,3.554 -4.125,3.5 -5.305,2.414 -7.691,7.586 -4.7,0.676 -7.691,2.988 -4.141,2.325 -11.203,2.918 c -5.425,3.437 -10.25,4 -11.23,7.679 l -12.367,2.414 c -2.778,1.141 -4.508,1.141 -5.91,2.301 l -4.098,3.567 -11.836,3.531 -4.699,2.945 -7.692,4.711 -6.437,4.688 -7.114,2.414 -8.269,5.867 -10.625,1.789 -7.066,4.101 -4.118,1.192 -6.48,2.988 -4.137,2.949 -7.699,5.903 -5.27,1.781 -5.921,1.133 c -2.985,2.679 -5.707,2.797 -6.489,5.937 -2.254,0.508 -3.851,2.25 -5.3,3.547 -5.372,3.461 -6.309,5.996 -6.473,7.031 -2.641,-0.019 -6.61,-0.437 -8.274,0.606 l -5.324,2.941 c -1.664,2.098 -2.539,2.645 -4.129,2.985 -1.976,2.968 -1.172,4.554 -4.722,5.285 l -4.141,3.566 -4.129,5.281 -5.324,6.524 -3.563,4.101 -5.89,7.063 -4.657,2.961 -1.796,5.937 -4.711,2.954 c -2.477,3.5 -3,4.906 -3.559,5.304 -3.039,1.086 -5.625,6.063 -5.906,7.086 -5.164,4 -8.559,4.086 -11.207,4.11 -0.512,-2.61 -2.754,-5.11 -4.711,-6.477 h -15.32 c -1.641,-2.719 -0.332,-4.883 0,-5.313 l 2.308,-5.89 -7.648,1.765 -7.082,1.157 5.933,-5.282 7.032,-5.351 c -4.262,-7.805 -9.153,-4.969 -13.559,-4.703 -1.891,-1.199 -3.809,-1.199 -7.066,-1.156 -0.934,-1.821 -1.09,-1.079 -1.208,-4.165 3.399,-2.625 0.75,-6.148 0.583,-10.625 l -2.926,-7.046 c -4.492,-1.782 -5.614,-2.407 -7.645,-3.524 l -5.328,-2.406 c -4.027,-3.211 -4.816,-3.734 -6.437,-4.141 -0.344,-1.445 -0.59,-2.121 -0.625,-4.101 1.308,-2.703 0.515,-3.242 -0.625,-4.125 -5.512,-3.578 -9.352,-3.985 -12.387,-4.117 l -4.145,-1.204 -4.093,2.969 c -1.329,0.711 -3.422,0.32 -4.735,1.153 -1.172,-4.922 -1.07,-4.075 0,-5.325 1.473,-1.273 0.625,-3.093 1.207,-4.687 1.965,-3.789 1.532,-3.035 1.184,-3.539 l -4.176,-1.813 c -5.055,-3.226 -4.332,-1.547 -5.867,-3.515 1.172,-5.625 -1.086,-7.43 -2.348,-8.856 l -2.383,-4.113 c -0.386,-0.555 -3.957,-2.633 -4.75,-2.969 l -5.847,-2.344 c -3.918,-2.968 -5.793,-2.136 -7.09,-2.945 l -3.547,-4.172 -8.297,-1.738 c -2.488,-2.656 -5.523,-3.399 -7.644,-3.555 l -5.871,-4.152 -9.508,-0.563 c -1.852,1.121 -3.395,0.227 -4.7,0 -4.843,-5.867 -7.253,-2.718 -9.445,-5.91 -1.734,-2.031 0.383,-3.73 -3.523,-4.715 l -7.078,-5.336 -3.504,-7.054 c -3.172,-2.453 -4.074,-2.789 -4.719,-3.52 -2.102,0.156 -4.344,1.785 -5.953,1.113 -3.547,-2.363 -6.563,-0.07 -8.828,-2.32 l 0.558,-5.898 -1.16,-4.125 h -9.457 l -7.051,-5.274 c -5.402,-6.875 -5.574,-6.961 -5.882,-8.285 l -11.821,-0.625 c -3.086,-1.848 -4.414,-2.848 -5.906,-3.519 l 4.133,-2.942 c 2.207,-1.793 3.39,-1.996 3.558,-5.312 l -4.168,-1.77 c -0.242,1.539 -0.574,2.586 -0.597,4.711 h -4.11 l -7.074,-2.941 -4.129,-2.418 c -3.758,-2.188 -4.433,-0.356 -5.277,-3.481 -1.344,-1.472 0.152,-3.621 0.578,-5.312 l 2.391,-4.176 -8.325,0.602 h -4.714 c -6.075,-2.833 -6.004,-4.551 -6.489,-5.266 -2.632,-2.211 -3.234,-3.016 -5.859,-3.594 -2.953,-2.773 -2.285,-2.812 -2.981,-4.086 l -7.097,-4.758 c -4.481,-2.629 -5.973,-1.765 -8.863,-1.765 l 1.804,-4.688 -7.082,-5.89 c -6.64,-4.645 -7.734,-5.203 -10.035,-5.336 -1.492,1.965 -1.832,2.707 -4.141,2.945 l -7.668,-4.73 -5.906,-2.969 -0.578,-5.848 -3.562,-4.152 c -2.176,-1.653 -3.168,-1.59 -3.543,-4.063 3.031,-3.324 2.718,-4.043 2.379,-5.988 l -4.126,-0.555 c -0.265,1.43 -0.523,2.168 -0.593,4.133 -2.11,0.809 -5.86,0.625 -8.871,0.578 -1.262,-2.211 -3.578,-4.156 -6.442,-4.711 -5.054,-4.375 -6.844,-7.234 -7.066,-7.675 -3.613,-4.489 -4.602,-5.067 -5.945,-4.754 -1.52,0.468 -4.204,3.078 -6.489,2.382 l -4.094,-2.382 -5.335,0.625 v -4.11 c -0.985,-0.336 -5.801,-1.32 -6.489,-1.211 l -4.136,-0.55 -8.832,-1.207 h -4.137 l -2.973,-4.18 c -3.726,-1.695 -5.39,-0.914 -6.472,-1.758 -3.18,-3.422 -5.989,-1.008 -8.227,-1.762 l -12.457,-1.144 h -4.711 l -7.0586,-0.625 c -4.0196,-1.25 -6.1446,-1.781 -9.4688,-1.199 -1.3086,2.628 -2.7695,4.531 -4.1211,3.593 l -5.3007,2.317 -8.2696,0.578 c -2.8476,3.242 -1.9531,4.734 -2.9492,5.387 l -7.0781,-0.653 -5.3008,4.156 c -0.5781,1.875 -3.2891,2.747 -4.1055,2.969 l -10.0625,-1.226 -4.1367,3.007 -4.1172,2.946 c -4.9453,3.617 -6.5078,1.031 -7.6484,4.648 1.6211,5.403 2.1211,2.969 5.2812,4.172 l 7.1094,2.367 2.9219,5.36 5.3047,7.031 7.6914,5.914 c 0.9609,0.734 1.039,3.059 1.7617,4.113 l 2.3789,4.145 c 3.9062,2.476 3.8828,4.578 7.043,5.312 l 8.2695,7.078 5.3281,7.102 c 2.8711,2.43 4.6172,4.219 6.5039,5.285 l 10.6016,3.488 c -0.7188,3.789 -0.9805,4.532 -1.2031,6.512 l 7.0898,4.762 c 2.8633,0.289 4.2692,0.039 7.1092,0.578 l 4.699,7.078 c 4.719,3.832 3.961,2.453 5.325,4.149 l 7.683,8.242 c 1.223,2.691 1.344,2.765 1.746,4.125 l 10.625,-1.176 0.563,8.23 8.894,6.5 3.516,5.289 4.133,1.875 c 3.097,2.95 5.676,2.883 8.879,2.883 v 4.703 l 6.484,3.555 c 3.094,3.32 3.449,4.016 5.887,4.195 0.902,2.813 2.699,4.461 3.523,4.664 l 5.906,0.579 -0.601,4.734 c 2.219,0.469 3.367,1.672 4.742,2.949 l 6.484,3.555 5.926,6.465 2.922,4.179 c 2.391,4.043 3.891,2.852 4.731,5.868 l 8.867,1.769 c 0.601,2.543 2.246,2.5 2.937,5.332 l 4.129,1.766 c 6.141,2.476 7.879,2.297 10,2.344 0.067,4.468 1.496,2.867 2.391,5.898 4.191,2.359 6.328,2.004 7.086,2.961 l 4.121,5.312 4.695,2.352 4.129,5.883 8.281,3.531 c 6.063,7.59 5.16,6.281 7.047,7.121 l 9.442,2.93 4.753,8.847 c 2.602,0 3.973,0.04 5.325,1.192 l 15.34,7.676 4.699,2.961 7.062,2.961 c 2.938,3.906 2.235,4.671 2.981,5.289 l 4.129,1.203 c 4.183,1.609 6.097,2.883 8.238,2.312 2.32,-1.242 3.594,0.281 4.734,-0.539 3.582,-3.07 4.016,-2.242 4.094,-5.367 l -7.019,0.625 -1.809,-5.305 c -0.938,-1.101 -2.195,-1.543 -4.164,-1.773 l -6.461,-2.367 c -4.895,-4.688 -6.543,-3.946 -7.649,-4.727 l -4.746,-5.305 -4.089,-2.976 c -1.957,-2.363 -2.872,-3.242 -5.293,-3.508 -3.024,1.719 -4.164,1.719 -5.95,1.77 l -8.851,-2.969 v -4.129 c -2.524,-1.328 -4.496,-3.371 -7.629,-4.141 v -5.312 c -1.086,-2.992 -4.824,-4.063 -9.469,-3.539 l -6.484,-8.242 c -2.11,-0.415 -3.215,-1.563 -4.68,-2.344 l -6.527,-0.625 -1.207,-4.727 c -1.364,-3.152 -4.418,-2.527 -8.246,-2.351 -2.637,-3.282 -2.493,-3.352 -2.368,-4.688 -6.25,-7.832 -10.433,-9.039 -12.386,-9.445 l -1.164,-5.313 c -5.86,-2.679 -7.223,-1.273 -8.836,-2.945 l -6.535,-5.336 -2.918,-4.129 c -3.688,-2.902 -4.559,-4.199 -6.512,-4.715 l 5.301,-1.781 c 4.199,0.207 5.215,0.914 6.531,1.203 l 4.652,5.293 4.176,1.762 11.207,0.625 c -2.355,3.641 -3.586,5 -3.516,8.844 l 6.485,1.738 c 6.328,6.496 5.347,7.035 9.441,7.098 0.68,-0.649 3.973,-1.043 5.281,-1.18 l 0.614,5.293 c 1.996,1.293 4.867,-0.027 7.054,0.625 2.891,0.84 3.805,2.316 7.688,2.363 -0.723,2.656 -2.219,2.156 -2.356,5.867 l 8.239,6.524 8.293,6.469 h 5.871 c 0.996,3.796 2.301,1.875 5.34,2.984 2.933,3.266 3.218,4.387 3.511,5.883 1.411,0.89 3.137,4.441 3.551,4.676 l 8.258,3.566 c 1.621,2.937 2.926,3.476 3.523,4.129 h 5.329 c 3.593,3.75 4.578,4.09 5.324,4.707 5.066,3 5.625,3.656 7.687,4.14 0.703,2.766 5,4.805 9.414,3.555 5.508,1.25 5.637,2.289 9.442,2.367 l -0.602,4.703 4.133,1.758 3,5.93 4.082,0.578 5.293,2.391 c 3.695,3.687 5.887,3.062 7.098,4.093 6.429,2.852 6.472,5.829 12.39,5.907 l 5.903,4.765 5.304,1.149 4.141,2.929 8.246,2.993 6.484,5.273 11.254,3.516 4.688,1.211 15.914,1.203 v 4.109 c 2.59,1.492 3.754,3.953 7.707,4.141 l -5.93,2.312 -17.691,-1.742 -6.485,-5.336 c -2.871,-3.484 -7.48,-4.375 -10.593,-5.226 -3.953,-1.149 -6.719,1.269 -10.067,0 l -4.152,-1.778 -7.067,-7.683 c -2.144,-1.188 -2.601,0.656 -5.3,0 l -7.668,0.554 c -0.235,-2.609 -1.961,-7.898 -3.539,-8.828 l -5.325,-1.203 c -2.992,-2.773 -4.41,-3.476 -7.644,-3.516 l -7.043,-4.75 -4.188,-0.578 -8.203,0.578 c -1.172,3.61 -0.355,3.086 0,5.907 4.821,1.836 7.282,3.843 9.989,4.765 h 4.121 l 4.14,-3.554 c 3.223,1.422 4.34,2.226 5.907,2.906 -0.438,1.133 -0.571,2.336 -0.571,4.164 3.242,3.406 3.828,4.18 4.664,5.273 l 3.594,5.965 c 2.535,1.254 5.965,1.602 7.621,1.106 l 10.653,2.414 5.312,2.945 4.141,2.992 7.621,4.086 8.285,2.922 c 2.894,2.149 3.906,3.906 8.25,4.133 l 7.09,2.976 c 5.051,3.016 9.347,0.125 10.597,-0.601 l 7.133,4.117 4.117,4.133 h 5.282 l 7.695,1.766 c 2.293,1.542 3.672,2.117 5.297,3.562 2.531,2.094 4.441,0.188 5.312,0 l 8.282,1.203 4.109,1.777 11.207,0.536 c 5.066,-2.125 6.215,-1.055 7.062,-0.536 2.704,1.739 7.336,-0.285 8.868,-0.605 2.508,-1.148 4.382,-1.07 8.289,-1.172 1.574,-2.285 4.426,-1.148 5.285,-4.14 z m 364.082,-97.996 5.883,-5.859 c -0.937,-3.539 -5.57,-2.993 -8.816,-2.938 -1.664,2.977 -0.391,4.766 0,6.477 z m -23.637,-2.32 c 2.516,0 3.68,-0.508 5.344,-1.211 l 2.938,-4.672 c -2.258,-1.109 -4.914,-0.484 -6.453,-1.211 -3.852,-2.742 -8.664,-1.547 -9.477,0 2.141,3.047 6.504,3.898 7.086,4.758 z m -15.875,-2.336 5.258,-5.367 c -1.64,-2.446 -3.004,-2.836 -5.258,-2.946 -1,2.25 0.661,4.282 0.563,5.325 z M 441.344,552.922 c -1.395,0.105 -2.692,0.668 -3.895,-0.625 1.762,-1.543 0.168,-1.676 3.895,-1.746 z m -179.114,-23.621 4.68,-4.711 4.766,0.578 -4.141,2.949 c -2.699,2.434 -4.297,1.426 -5.305,1.184 z m -73.761,-12.344 c -1.356,-3.328 -0.996,-4.18 -1.766,-4.805 l -8.875,-3.5 -4.676,-5.914 c -1.148,-3.109 -2.289,-4.672 -4.746,-5.297 1.082,-3.523 0.957,-3.726 2.356,-4.101 l 4.734,2.32 6.484,5.313 c 6.274,7.078 6.575,7.367 7.692,8.238 l 4.094,2.41 c 3.453,3.125 5.449,3.215 5.906,7.609 l -4.141,-0.578 -4.109,-0.574 z m 814.261,-9.516 -1.21,4.18 -1.16,-4.754 z m -13.011,-1.093 c -1.328,-2.047 -3.125,-1.625 -3.52,-4.75 2.641,-1.563 1.781,-2.438 6.469,-2.414 l 4.715,1.203 12.397,-2.407 -4.13,4.2 -4.69,0.558 -4.761,1.785 z M 148.352,475.012 c 1.058,3.656 4.718,1.828 5.343,7.117 -8.55,-3.641 -6.761,-5.375 -7.734,-7.117 -2.289,-1.543 -4.598,-0.957 -5.859,-1.789 l -9.465,-6.453 c -4.153,-1.915 -8.004,-5.317 -8.27,-11.227 h 5.344 c 6.062,4.66 7.578,4.555 8.25,5.336 l 9.437,10.574 z m 671.449,282.062 -11.203,-1.769 -4.711,-1.168 -14.192,-1.758 -1.179,-5.336 c -3.09,-2.414 -4.075,-2.703 -4.723,-3.563 -1.941,0 -2.656,-0.242 -4.129,-0.546 -0.168,-4.348 -2.019,-3.391 -2.934,-6.477 -2.613,-0.602 -3.261,-1.152 -7.066,-1.203 -0.793,-1.492 -1.184,-2.078 -1.207,-4.711 -1.426,-0.258 -2.633,-0.859 -4.742,-0.578 l -5.86,-4.153 -1.785,-8.269 -2.371,-5.324 c -1.637,-3.309 0.383,-5.887 1.211,-7.645 l 0.578,-4.14 6.442,-5.872 c 3.75,-1.093 3.683,-2.863 4.175,-3.542 l 4.719,-2.375 8.262,-3.547 7.062,-1.77 12.993,-2.957 h 7.109 l 4.121,-0.555 5.902,-0.601 6.493,1.773 8.265,1.758 4.699,3.508 5.926,1.766 c 4.321,1.781 5.215,3.105 7.067,3.562 l 2.925,6.5 c 4.653,1.766 7.981,2.68 10.04,4.156 2.804,2.367 3.5,1.953 4.714,2.336 1.34,3.399 2.36,9.102 4.703,10.633 l 3.579,4.094 c -0.883,1.785 -1.278,5.066 -0.602,6.511 0.512,1.036 2.656,1.028 1.785,4.153 l -1.183,5.867 c -4.454,3.281 -2.329,3.867 -3.579,5.922 l -4.113,3.516 -8.816,3.554 -4.742,2.969 -4.133,1.168 -6.442,0.574 -21.906,2.395 z m 77.867,10.055 c 1.227,-0.32 4.91,-2.274 5.301,-2.945 l 2.386,-6.485 2.379,-4.738 4.106,-2.949 2.961,-5.282 2.387,-4.164 1.164,-10.023 -1.164,-9.457 v -5.332 c 0.75,-0.945 -0.915,-5.566 -1.204,-7.063 -2.746,-0.234 -4.054,-1.296 -5.332,-2.937 l -2.918,-5.32 -6.535,-2.883 -5.879,-2.989 -2.351,-5.339 c -1.43,-0.266 -3.489,-0.782 -4.129,-1.766 l -3.563,-4.711 -7.062,-5.945 c -4.246,-1.352 -5.86,-3.18 -8.828,-4.098 -3.332,-1.012 -7.883,0.457 -10.676,-1.207 l -4.086,-4.695 -4.742,-5.93 -6.485,-0.555 -4.675,0.555 -6.532,-2.32 c -1.847,-1.918 -3.035,-1.227 -4.718,-1.742 l -8.25,-0.672 h -13.598 l -7.645,2.414 -11.832,1.187 -4.117,2.922 -4.722,2.375 -4.129,4.078 -4.723,3.008 c -1.641,1.524 -3.301,2.93 -5.902,3.508 -0.668,2.656 -2.223,2.074 -2.938,4.742 -1.812,0.367 -5.043,2 -6.515,2.957 l -4.657,4.692 -1.797,6.542 -1.21,4.106 1.781,4.117 -2.356,5.32 0.575,7.649 -1.129,6.555 1.753,6.453 c 3.688,4.687 6.626,5.176 7.04,5.89 l 1.808,5.313 c 0.942,2.273 0.813,3.976 3.524,4.765 l 4.703,2.938 c 4.531,5.75 5.633,7.547 8.269,8.262 2.711,3.75 5.446,4.496 5.903,8.254 l 5.906,1.746 7.074,4.765 4.723,6.457 5.281,0.625 5.957,2.907 4.695,2.98 c 4.731,2.645 6.95,0.859 8.856,1.762 1.933,2.211 9,2.965 10.605,2.34 3.617,-3.711 5.114,-3.582 5.926,-4.102 l 4.129,-1.785 c 4.898,1.516 5.152,0.457 5.906,0.578 l 5.86,0.582 8.261,0.625 h 8.899 l 7.64,-1.207 4.141,-1.773 5.281,-2.907 7.067,-5.976 c 2.91,-1.008 3.691,-2.313 4.152,-4.672" /><path
             id="path40"
             style="fill:#231f20;fill-opacity:1;fill-rule:nonzero;stroke:none"
             d="M 0,272.871 H 3497.44" /><path
             id="path42"
             style="fill:none;stroke:#231f20;stroke-width:16;stroke-linecap:butt;stroke-linejoin:miter;stroke-miterlimit:4;stroke-dasharray:none;stroke-opacity:1"
             d="M 0,272.871 H 3497.44" /><path
             id="path44"
             style="fill:#231f20;fill-opacity:1;fill-rule:nonzero;stroke:none"
             d="M 751.664,65.5469 734.828,133.809 718.672,65.5469 Z M 719.848,169.18 h 36.867 L 804.32,2.55859 H 766.871 L 758.555,36.9844 H 711.621 L 703.445,2.55859 H 669.801 L 719.848,169.18" /><path
             id="path46"
             style="fill:#231f20;fill-opacity:1;fill-rule:nonzero;stroke:none"
             d="m 874.27,91.4258 h 57.859 V 2.55859 H 916.625 L 911.863,21.6016 C 902.91,7.19922 889.48,0 871.582,0 852.617,0 837.59,7.46094 826.477,22.3945 c -11.106,14.9297 -16.665,35.0078 -16.665,60.2422 0,27.4223 5.477,49.1333 16.418,65.1293 10.95,15.984 27.122,23.98 48.528,23.98 34.094,0 53.222,-19.043 57.371,-57.125 l -32.957,-5.371 c -2.281,21.805 -10.18,32.715 -23.684,32.715 -8.222,0 -14.789,-4.035 -19.718,-12.082 -4.918,-8.067 -7.379,-23.321 -7.379,-45.7814 0,-19.9414 2.394,-33.9844 7.199,-42.1094 4.801,-8.1445 11.844,-12.207 21.121,-12.207 14.891,0 22.375,11.0156 22.461,33.0781 H 874.27 v 28.5625" /><path
             id="path48"
             style="fill:#231f20;fill-opacity:1;fill-rule:nonzero;stroke:none"
             d="m 960.691,169.18 h 101.319 v -28.555 h -64.698 v -38.699 h 50.298 V 73.3594 H 997.312 V 32.3438 h 64.698 V 2.55859 H 960.691 V 169.18" /><path
             id="path50"
             style="fill:#231f20;fill-opacity:1;fill-rule:nonzero;stroke:none"
             d="m 1078.61,169.18 h 40.65 L 1162.11,65.6641 V 169.18 h 28.32 V 2.55859 h -32.72 L 1106.93,123.164 V 2.55859 h -28.32 V 169.18" /><path
             id="path52"
             style="fill:#231f20;fill-opacity:1;fill-rule:nonzero;stroke:none"
             d="m 1301.51,63.2227 33.82,-2.0704 C 1334.11,43.0859 1328.37,28.3789 1318.12,17.0234 1307.86,5.67578 1294.31,0 1277.47,0 c -20.51,0 -36.14,7.59766 -46.88,22.8242 -10.74,15.211 -16.11,36.1719 -16.11,62.8594 0,26.9334 5.32,48.0194 15.99,63.2424 10.66,15.215 26.49,22.82 47.48,22.82 34.75,0 53.67,-21.48 56.77,-64.449 l -33.45,-2.442 c -0.9,24.735 -8.63,37.11 -23.19,37.11 -7.66,0 -13.74,-3.996 -18.25,-11.965 -4.52,-7.977 -6.78,-23.438 -6.78,-46.3867 0,-20.5078 2.08,-34.6094 6.23,-42.293 4.15,-7.6953 10.37,-11.5351 18.67,-11.5351 13.35,0 21.2,11.1445 23.56,33.4375" /><path
             id="path54"
             style="fill:#231f20;fill-opacity:1;fill-rule:nonzero;stroke:none"
             d="m 1333.98,169.18 h 40.34 l 23.51,-60.731 25.15,60.731 h 35.76 L 1412.48,72.9883 V 2.55859 h -36.63 V 72.9883 l -41.87,96.1917" /><path
             id="path56"
             style="fill:#231f20;fill-opacity:1;fill-rule:nonzero;stroke:none"
             d="m 1590.58,85.9375 c 0,22.4605 -1.76,37.4145 -5.25,44.8555 -3.5,7.449 -9.08,11.172 -16.73,11.172 -7.56,0 -13.1,-3.742 -16.6,-11.231 -3.5,-7.492 -5.25,-22.422 -5.25,-44.7965 0,-21.9727 1.73,-36.8359 5.19,-44.5586 3.46,-7.7344 9.01,-11.5937 16.66,-11.5937 7.57,0 13.12,3.6914 16.67,11.1054 3.53,7.4024 5.31,22.4102 5.31,45.0469 z m 38.57,0 C 1629.15,28.6328 1609.01,0 1568.73,0 c -20.02,0 -35.12,7.30469 -45.29,21.9062 -10.18,14.6094 -15.26,35.9454 -15.26,64.0313 0,57.2075 20.14,85.8085 60.42,85.8085 19.7,0 34.71,-7.156 45.05,-21.48 10.33,-14.328 15.5,-35.774 15.5,-64.3285" /><path
             id="path58"
             style="fill:#231f20;fill-opacity:1;fill-rule:nonzero;stroke:none"
             d="m 1654.66,169.18 h 98.88 v -28.555 h -62.26 V 97.043 h 47.98 V 68.4766 h -47.98 V 2.55859 h -36.62 V 169.18" /><path
             id="path60"
             style="fill:#231f20;fill-opacity:1;fill-rule:nonzero;stroke:none"
             d="m 1793.33,169.18 h 103.89 v -31.25 h -34.07 V 2.55859 h -36.62 V 137.93 h -33.2 v 31.25" /><path
             id="path62"
             style="fill:#231f20;fill-opacity:1;fill-rule:nonzero;stroke:none"
             d="M 1946.53,142.207 V 95.4492 h 16.12 c 14.31,0 21.48,8.0198 21.48,24.0548 0,5.535 -1.05,10.066 -3.17,13.613 -2.12,3.535 -4.58,5.938 -7.4,7.195 -2.79,1.27 -6.93,1.895 -12.38,1.895 z m -36.62,26.973 h 52.37 c 10.17,0 17.96,-0.469 23.37,-1.395 5.41,-0.937 10.88,-3.469 16.43,-7.57 5.53,-4.11 9.86,-9.727 12.99,-16.844 3.14,-7.121 4.71,-15.129 4.71,-23.996 0,-20.8281 -7.82,-35.4766 -23.44,-43.9453 l 30.64,-72.87111 h -39.86 l -22.29,65.91801 h -18.3 V 2.55859 h -36.62 V 169.18" /><path
             id="path64"
             style="fill:#231f20;fill-opacity:1;fill-rule:nonzero;stroke:none"
             d="m 2107.38,65.5469 -16.83,68.2621 -16.16,-68.2621 z M 2075.57,169.18 h 36.86 L 2160.04,2.55859 h -37.45 l -8.31,34.42581 h -46.94 l -8.17,-34.42581 h -33.65 L 2075.57,169.18" /><path
             id="path66"
             style="fill:#231f20;fill-opacity:1;fill-rule:nonzero;stroke:none"
             d="m 2172.62,169.18 h 40.65 L 2256.11,65.6641 V 169.18 h 28.32 V 2.55859 h -32.71 L 2200.94,123.164 V 2.55859 h -28.32 V 169.18" /><path
             id="path68"
             style="fill:#231f20;fill-opacity:1;fill-rule:nonzero;stroke:none"
             d="m 2416.4,132.93 -30.28,-11.602 c -4.31,13.75 -12.2,20.637 -23.68,20.637 -5.37,0 -9.63,-1.524 -12.75,-4.582 -3.14,-3.047 -4.7,-6.61 -4.7,-10.684 0,-4.715 1.85,-8.476 5.55,-11.289 3.7,-2.801 11.45,-6.484 23.26,-11.043 10.74,-3.996 19.18,-7.9412 25.32,-11.8475 6.14,-3.9062 11.11,-9.207 14.89,-15.9257 3.79,-6.711 5.69,-14.504 5.69,-23.3711 0,-15.5469 -5.36,-28.3008 -16.06,-38.2696 C 2392.94,4.98047 2378.59,0 2360.62,0 c -30.2,0 -49.49,15.2539 -57.88,45.7734 l 32,9.1485 c 3.9,-16.7578 12.81,-25.1367 26.72,-25.1367 6.35,0 11.5,1.6406 15.44,4.9414 3.95,3.2929 5.92,7.6289 5.92,13 0,4.0703 -1.37,7.7031 -4.14,10.9257 -2.77,3.2149 -9.12,6.6016 -19.04,10.1954 -12.78,4.5507 -22.31,8.6835 -28.58,12.3828 -6.26,3.7109 -11.42,8.9961 -15.49,15.8711 -4.08,6.8824 -6.11,14.7144 -6.11,23.5034 0,14.961 4.83,27.239 14.47,36.797 9.64,9.571 22.4,14.344 38.27,14.344 28.97,0 47.04,-12.937 54.2,-38.816" /><path
             id="path70"
             style="fill:#231f20;fill-opacity:1;fill-rule:nonzero;stroke:none"
             d="M 2478.9,142.207 V 92.7734 h 11.35 c 10.01,0 16.46,2.3243 19.35,6.9727 2.89,4.6489 4.34,10.6839 4.34,18.1059 0,6.289 -1.13,11.367 -3.36,15.234 -2.24,3.887 -4.85,6.367 -7.82,7.473 -2.97,1.101 -7.13,1.648 -12.51,1.648 z m -36.62,26.973 h 47.97 c 14.57,0 25.86,-1.211 33.88,-3.653 8.01,-2.441 14.75,-7.957 20.2,-16.543 5.46,-8.593 8.18,-19.226 8.18,-31.922 0,-12.207 -2.2,-22.2964 -6.59,-30.2768 -4.4,-7.9766 -10.48,-13.7266 -18.25,-17.2735 -7.78,-3.5351 -19.71,-5.3125 -35.82,-5.3125 H 2478.9 V 2.55859 h -36.62 V 169.18" /><path
             id="path72"
             style="fill:#231f20;fill-opacity:1;fill-rule:nonzero;stroke:none"
             d="m 2646.51,85.9375 c 0,22.4605 -1.75,37.4145 -5.25,44.8555 -3.5,7.449 -9.07,11.172 -16.72,11.172 -7.58,0 -13.1,-3.742 -16.6,-11.231 -3.51,-7.492 -5.25,-22.422 -5.25,-44.7965 0,-21.9727 1.72,-36.8359 5.18,-44.5586 3.46,-7.7344 9.01,-11.5937 16.67,-11.5937 7.56,0 13.12,3.6914 16.66,11.1054 3.54,7.4024 5.31,22.4102 5.31,45.0469 z m 38.58,0 C 2685.09,28.6328 2664.94,0 2624.66,0 c -20.02,0 -35.12,7.30469 -45.29,21.9062 -10.17,14.6094 -15.26,35.9454 -15.26,64.0313 0,57.2075 20.14,85.8085 60.43,85.8085 19.69,0 34.71,-7.156 45.04,-21.48 10.33,-14.328 15.51,-35.774 15.51,-64.3285" /><path
             id="path74"
             style="fill:#231f20;fill-opacity:1;fill-rule:nonzero;stroke:none"
             d="M 2747.22,142.207 V 95.4492 h 16.11 c 14.33,0 21.48,8.0198 21.48,24.0548 0,5.535 -1.05,10.066 -3.16,13.613 -2.12,3.535 -4.58,5.938 -7.39,7.195 -2.8,1.27 -6.94,1.895 -12.39,1.895 z m -36.62,26.973 h 52.37 c 10.17,0 17.96,-0.469 23.38,-1.395 5.41,-0.937 10.88,-3.469 16.41,-7.57 5.54,-4.11 9.87,-9.727 13,-16.844 3.14,-7.121 4.7,-15.129 4.7,-23.996 0,-20.8281 -7.81,-35.4766 -23.44,-43.9453 l 30.65,-72.87111 h -39.87 l -22.28,65.91801 h -18.3 V 2.55859 H 2710.6 V 169.18" /><path
             id="path76"
             style="fill:#231f20;fill-opacity:1;fill-rule:nonzero;stroke:none"
             d="m 2832.92,169.18 h 103.89 v -31.25 h -34.07 V 2.55859 h -36.62 V 137.93 h -33.2 v 31.25" /><path
             id="path78"
             style="fill:#231f20;fill-opacity:1;fill-rule:nonzero;stroke:none"
             d="M 3007.43,65.5469 2990.6,133.809 2974.44,65.5469 Z M 2975.62,169.18 h 36.86 L 3060.09,2.55859 h -37.45 l -8.31,34.42581 h -46.94 l -8.17,-34.42581 h -33.65 L 2975.62,169.18" /><path
             id="path80"
             style="fill:#231f20;fill-opacity:1;fill-rule:nonzero;stroke:none"
             d="m 3050.81,169.18 h 103.89 v -31.25 h -34.07 V 2.55859 h -36.62 V 137.93 h -33.2 v 31.25" /><path
             id="path82"
             style="fill:#231f20;fill-opacity:1;fill-rule:nonzero;stroke:none"
             d="m 3167.37,2.55859 h 36.6172 v 166.621 H 3167.37 Z" /><path
             id="path84"
             style="fill:#231f20;fill-opacity:1;fill-rule:nonzero;stroke:none"
             d="m 3311.92,85.9375 c 0,22.4605 -1.75,37.4145 -5.25,44.8555 -3.5,7.449 -9.07,11.172 -16.72,11.172 -7.58,0 -13.1,-3.742 -16.6,-11.231 -3.51,-7.492 -5.25,-22.422 -5.25,-44.7965 0,-21.9727 1.72,-36.8359 5.18,-44.5586 3.46,-7.7344 9.01,-11.5937 16.67,-11.5937 7.56,0 13.12,3.6914 16.66,11.1054 3.54,7.4024 5.31,22.4102 5.31,45.0469 z m 38.58,0 C 3350.5,28.6328 3330.35,0 3290.07,0 c -20.02,0 -35.12,7.30469 -45.29,21.9062 -10.17,14.6094 -15.26,35.9454 -15.26,64.0313 0,57.2075 20.14,85.8085 60.43,85.8085 19.69,0 34.71,-7.156 45.04,-21.48 10.33,-14.328 15.51,-35.774 15.51,-64.3285" /><path
             id="path86"
             style="fill:#231f20;fill-opacity:1;fill-rule:nonzero;stroke:none"
             d="m 3374.67,169.18 h 40.65 L 3458.16,65.6641 V 169.18 h 28.32 V 2.55859 h -32.71 L 3402.99,123.164 V 2.55859 h -28.32 V 169.18" /></g></g></g></g></svg>